<?xml version="1.0" standalone="no"?>
<!DOCTYPE svg PUBLIC "-//W3C//DTD SVG 1.1//EN" "http://www.w3.org/Graphics/SVG/1.1/DTD/svg11.dtd" >
<svg xmlns="http://www.w3.org/2000/svg" xmlns:xlink="http://www.w3.org/1999/xlink" version="1.1">
<metadata></metadata>
<defs>
<font id="magrabold" horiz-adv-x="1079" >
<font-face units-per-em="2048" ascent="1638" descent="-410" />
<missing-glyph horiz-adv-x="419" />
<glyph horiz-adv-x="0" />
<glyph unicode="&#xd;" horiz-adv-x="681" />
<glyph unicode=" "  horiz-adv-x="419" />
<glyph unicode="&#x09;" horiz-adv-x="419" />
<glyph unicode="&#xa0;" horiz-adv-x="419" />
<glyph unicode="!" horiz-adv-x="636" d="M506 1456l-45 -997l-277 -21l-47 998zM332 346q178 0 178 -194q0 -76 -48 -127.5t-149 -51.5q-176 0 -176 195q0 76 47.5 127t147.5 51z" />
<glyph unicode="&#x22;" horiz-adv-x="798" d="M100 1554h254v-233l-24 -324h-203l-27 324v233zM444 1554h254v-233l-24 -324h-203l-27 324v233z" />
<glyph unicode="#" horiz-adv-x="1259" d="M1010 1290l-45 -297h211l-31 -209h-213l-25 -174h205l-31 -204h-207l-34 -252l-215 -29l41 281h-172l-37 -252l-213 -29l41 281h-207l31 204h206l27 174h-203l31 209h203l41 269l213 28l-45 -297h172l41 269zM551 784l-27 -174h172l27 174h-172z" />
<glyph unicode="$" horiz-adv-x="1073" d="M580 1032q-55 0 -84 -26.5t-29 -65.5q0 -57 176 -139q18 -10 50 -25.5t67 -37t80 -58.5q90 -80 90 -203t-82 -214t-225 -124l6 -272l-299 -35l47 299q-139 18 -311 111l102 223q205 -102 326 -103q59 0 96 27t37 76q0 31 -14.5 46t-23.5 23.5t-28 18.5q-43 20 -67.5 31.5 t-33.5 16.5t-49 22.5t-50.5 22.5t-45 23.5t-46 29t-37 31t-36 37.5t-24.5 44q-23 45 -22 113q0 131 89 220t236 113l-6 256l299 35l-49 -293q123 -16 272 -94l-104 -225q-211 96 -307 96z" />
<glyph unicode="%" horiz-adv-x="1611" d="M412 1499q102 0 176 -39t108 -100q61 -117 62 -221q0 -180 -100.5 -285.5t-258.5 -105.5q-102 0 -175.5 38.5t-108.5 100.5q-63 113 -64 219q0 180 101.5 286.5t259.5 106.5zM492.5 1247q-29.5 45 -87 45t-88 -50t-30.5 -125t29.5 -120t88 -45t88 50.5t29.5 125 t-29.5 119.5zM1204 731q102 0 176 -40t109 -101q63 -113 63 -219q0 -180 -100 -287t-258 -107q-102 0 -177 40t-108 102q-63 113 -63 217q0 182 100 288.5t258 106.5zM1202 524q-121 0 -121 -180q0 -70 31 -115t86 -45q119 0 119 178q0 72 -30 117t-85 45zM1278 1288 l-809 -1245l-168 113l811 1253z" />
<glyph unicode="&#x26;" horiz-adv-x="1271" d="M532 1159q-61 0 -98 -32.5t-37 -101.5t59.5 -119t202.5 -99l-28 -209l-70 -10q-82 -14 -135 -67.5t-53 -136.5t50 -132t124 -49q109 0 168 78v526h192l244 14l-27 -190l-151 -23v-303q0 -59 31.5 -85.5t81 -26.5t106.5 20l57 -160q-125 -78 -245 -78q-158 0 -209 117h-9 q-113 -117 -305 -117t-315 93.5t-123 283.5q0 131 75 224.5t189 134.5v10q-98 43 -154.5 110.5t-56.5 186.5q0 156 120 257t316.5 101t298 -77.5t121.5 -243.5l-266 -45q-25 149 -154 149z" />
<glyph unicode="'" horiz-adv-x="446" d="M96 1554h256v-233l-24 -324h-203l-29 324v233z" />
<glyph unicode="(" horiz-adv-x="696" d="M80 639q0 295 97 544t239 412l250 -32q-299 -434 -299 -923.5t299 -924.5l-250 -32q-141 164 -238.5 412.5t-97.5 543.5z" />
<glyph unicode=")" horiz-adv-x="704" d="M33 -285q299 438 299 923.5t-301 922.5l250 32q143 -164 240 -408.5t97 -540.5t-97 -549t-240 -414z" />
<glyph unicode="*" horiz-adv-x="774" d="M733 815l-205 113l-55 131l137 18l185 -114zM113 1354l211 -109l51 -131l-146 -16l-180 110zM813 1219l-195 -119l-145 14l53 129l195 103zM502 1497l8 -237l-86 -117l-86 117l8 217zM348 676l-10 239l86 115l86 -112l-8 -224zM35 950l198 125l142 -16l-56 -133 l-190 -101z" />
<glyph unicode="+" horiz-adv-x="1118" d="M436 692v314l254 36v-350h352l-41 -254h-311v-313l-254 -39v352h-354l41 254h313z" />
<glyph unicode="," horiz-adv-x="483" d="M381 301q6 -74 6 -161t-8 -129t-35 -105q-57 -131 -278 -256l-134 137q102 92 134 149.5t32 159t-8 166.5z" />
<glyph unicode="-" horiz-adv-x="700" d="M623 635v-232h-545v232h545z" />
<glyph unicode="." horiz-adv-x="559" d="M270 -25q-174 0 -174 191q0 74 47 125t146 51q174 0 174 -192q0 -74 -47.5 -124.5t-145.5 -50.5z" />
<glyph unicode="/" horiz-adv-x="698" d="M438 1563h250l-424 -1799h-252z" />
<glyph unicode="0" horiz-adv-x="1210" d="M625 1102q123 0 218 -36t151.5 -92t90.5 -130q63 -129 64 -279q0 -260 -156.5 -418.5t-408.5 -158.5q-121 0 -216.5 35.5t-150.5 91t-92 131.5q-63 127 -64 278q0 262 157 420t407 158zM600 856q-209 0 -209 -324q0 -299 219 -299q213 0 213 324q0 299 -223 299z" />
<glyph unicode="1" horiz-adv-x="905" d="M858 0h-741v201l225 20v379l55 178l-8 4l-94 -77l-127 -64l-98 186l268 191l96 84l240 -27l-17 -301v-555l201 -18v-201z" />
<glyph unicode="2" horiz-adv-x="1007" d="M84 999q195 106 405.5 106.5t319.5 -99t109 -256.5q0 -90 -41 -171t-86 -124q-119 -121 -349 -260l9 -9l145 43h358l-61 -229h-821v236q317 233 416.5 326t99.5 167t-43 108.5t-92.5 34.5t-89 -8t-64.5 -16q-86 -25 -117 -41z" />
<glyph unicode="3" horiz-adv-x="1028" d="M621 135q0 176 -230 176h-139v226h8q137 0 217 58t80 136q0 23 -6 49q-16 88 -160 88q-74 0 -227 -57l-82 193q205 102 409.5 102t306 -90t101.5 -236q0 -213 -190 -321q117 -35 181 -121t64 -205q0 -207 -138 -320.5t-369.5 -113.5t-426.5 121l89 205q168 -82 319 -82 q193 -1 193 192z" />
<glyph unicode="4" horiz-adv-x="1175" d="M950 227h199l-64 -227h-135v-276l-311 -33v309h-576v209l457 909l230 -153l-349 -738h238v121l61 295l250 35v-451z" />
<glyph unicode="5" horiz-adv-x="1060" d="M559 606q211 0 333 -105.5t122 -322.5q0 -156 -80 -268q-152 -213 -424 -213t-459 123l88 211q182 -78 238.5 -86t91.5 -8q94 0 151.5 59t57.5 165.5t-58.5 159t-148.5 52.5t-195 -56l-141 93l70 682h753l-34 -240h-430l-27 -213l-61 -66q65 33 153 33z" />
<glyph unicode="6" horiz-adv-x="1153" d="M944 1102q-135 51 -262 51t-194.5 -91t-79.5 -249q104 74 245 74q211 0 320.5 -124t109.5 -323.5t-129 -332t-358 -132.5q-268 0 -397 164t-129 511t149.5 544t419.5 197q197 0 393 -88zM408 528q0 -315 176 -315q164 0 164 218t-152 218q-119 0 -188 -69v-52z" />
<glyph unicode="7" horiz-adv-x="995" d="M952 860q-231 -459 -512 -1173l-293 141l492 1003h-604l28 261h889v-232z" />
<glyph unicode="8" horiz-adv-x="1101" d="M217 1284.5q119 108.5 339 108.5t326.5 -94.5t106.5 -237.5q0 -193 -196 -307q254 -121 254 -355q0 -178 -133.5 -301t-374 -123t-364.5 98.5t-124 280.5q0 125 58.5 205t185.5 150q-197 113 -197 301q0 166 119 274.5zM407.5 503q-32.5 -50 -32.5 -126t48 -121t138 -45 q162 0 162 180q0 76 -47 117q-43 39 -160 88q-76 -43 -108.5 -93zM535 1171q-123 0 -123 -122.5t168 -188.5q96 63 96 176q0 66 -37.5 100.5t-103.5 34.5z" />
<glyph unicode="9" horiz-adv-x="1126" d="M186.5 968.5q135.5 137.5 384 137.5t369.5 -164t121 -507t-155.5 -543.5t-428.5 -200.5q-178 0 -379 88l88 201q139 -51 264 -51.5t196 95t83 255.5q-92 -84 -252 -84q-203 0 -314.5 114.5t-111.5 298.5q0 223 135.5 360.5zM545 868q-162 0 -162 -221q0 -96 44 -155.5 t137 -59.5t163 66v41q0 329 -182 329z" />
<glyph unicode=":" horiz-adv-x="559" d="M289 342q174 0 174 -192q0 -74 -47 -124.5t-146 -50.5q-174 0 -174 191q0 74 47.5 125t145.5 51zM289 1040q174 0 174 -192q0 -74 -47 -124t-146 -50q-174 0 -174 192q0 74 47.5 124t145.5 50z" />
<glyph unicode=";" horiz-adv-x="538" d="M279 1040q174 0 174 -192q0 -74 -47.5 -124t-145.5 -50q-174 0 -174 192q0 74 47.5 124t145.5 50zM426 301q6 -147 6 -197.5t-8 -93.5t-37 -104q-59 -133 -278 -256l-132 137q102 92 134 149.5t32 142.5t-8 183z" />
<glyph unicode="&#x3c;" horiz-adv-x="1085" d="M831 1049l173 -183l-566 -368l566 -322l-170 -182l-693 387l-39 190z" />
<glyph unicode="=" horiz-adv-x="1120" d="M1026 498l-35 -242h-897l35 242h897zM1026 930l-35 -240h-897l35 240h897z" />
<glyph unicode="&#x3e;" horiz-adv-x="1085" d="M260 1049l731 -478l-41 -190l-692 -387l-170 182l565 322l-565 368z" />
<glyph unicode="?" horiz-adv-x="935" d="M43 1356q186 119 399 119t321.5 -94.5t108.5 -234.5t-52 -215t-183 -165q-66 -45 -82 -81t-18 -105l-7 -134l-288 -32q-16 190 -16.5 247.5t34.5 104.5t103.5 103.5t94 80t51.5 65.5t26 89q0 133 -166 133q-51 0 -89 -11.5t-90.5 -28.5t-68.5 -21zM397 342 q174 0 174 -192q0 -74 -47 -124.5t-145 -50.5q-174 0 -174 191q0 74 47 125t145 51z" />
<glyph unicode="@" horiz-adv-x="1718" d="M817 326q43 0 83 24.5t61 52.5q23 291 36 416q-29 8 -65 8q-117 0 -169 -101t-52 -230q0 -170 106 -170zM1217 950l-62 -598q0 -37 43 -37q74 0 141.5 127t67.5 365q0 121 -42 208t-116 134q-137 90 -336 90q-172 0 -319 -96q-82 -53 -143.5 -135t-101.5 -215.5 t-40 -276.5t25.5 -238.5t64.5 -155t96.5 -103.5t106.5 -65.5t111 -33.5q82 -16 166 -16q178 0 366 78l72 -185q-229 -106 -498 -106q-326 0 -522 174q-223 201 -223 606q0 250 76.5 444.5t205.5 309.5q256 227 588 227t512 -166t180 -452q0 -334 -140 -521.5t-343 -187.5 q-121 0 -147 115h-9q-96 -106 -236 -106.5t-206 101t-66 279.5t115 340t311 162q152 0 302 -66z" />
<glyph unicode="A" horiz-adv-x="1163" d="M764 1460l391 -1460h-338l-82 354h-313l-84 -354h-332l383 1425zM573 1092l-106 -494h225l-94 494h-25z" />
<glyph unicode="B" horiz-adv-x="1202" d="M137 1450h549q203 0 302 -87t99 -228.5t-67.5 -232.5t-188.5 -118v-12q178 -23 253 -106.5t75 -237.5q0 -188 -140 -308t-396 -120h-486v1450zM473 635v-395h129q115 0 156 52t41 144t-55.5 145.5t-174.5 53.5h-96zM473 1214v-340h98q172 0 172 173q0 86 -35.5 126.5 t-123.5 40.5h-111z" />
<glyph unicode="C" horiz-adv-x="1138" d="M308 1367.5q134 107.5 355.5 107.5t321.5 -114t100 -376l-333 -16q0 150 -31 196.5t-105 46.5q-115 0 -154.5 -122.5t-39.5 -372.5t73.5 -363.5t243.5 -113.5q104 0 295 61l68 -213q-221 -113 -457 -113q-584 0 -584 746q0 211 56.5 375t190.5 271.5z" />
<glyph unicode="D" horiz-adv-x="1239" d="M137 1450h467q141 0 246.5 -43t166 -109.5t97.5 -167.5q61 -168 62 -409q0 -377 -185 -574q-139 -147 -383 -147h-471v1450zM473 1196v-942h129q129 0 172 120t43 361.5t-50 351t-181 109.5h-113z" />
<glyph unicode="E" horiz-adv-x="1069" d="M137 1450h885l-37 -256h-512v-330h463l-35 -250h-428v-360h559l-37 -254h-858v1450z" />
<glyph unicode="F" horiz-adv-x="1013" d="M137 1450h854l-35 -254h-483v-340h424l-35 -250h-389v-606h-336v1450z" />
<glyph unicode="G" horiz-adv-x="1226" d="M216.5 1270q150.5 205 419.5 205t375.5 -121t106.5 -363l-332 -20q0 141 -31.5 191t-108.5 50t-120 -37.5t-63 -113.5q-37 -129 -37 -369.5t63.5 -347t206.5 -106.5q70 0 125 16v238h-196l30 233h473v-633q-125 -59 -236.5 -88t-262 -29t-259 48.5t-166 119t-90 182 t-40.5 202.5t-8 218q0 320 150.5 525z" />
<glyph unicode="H" horiz-adv-x="1286" d="M813 0v606h-340v-606h-336v1450h336v-578h340v578h334v-1450h-334z" />
<glyph unicode="I" horiz-adv-x="610" d="M473 1450v-1450h-336v1450h336z" />
<glyph unicode="J" horiz-adv-x="610" d="M473 1450v-1221q0 -193 -87 -327.5t-349 -253.5l-170 219q158 80 214 167t56 271v1145h336z" />
<glyph unicode="K" horiz-adv-x="1196" d="M473 1450v-1450h-336v1450h336zM889 1460l289 -127l-375 -600l409 -733h-374l-361 702z" />
<glyph unicode="L" horiz-adv-x="974" d="M473 1450v-1196h490l-37 -254h-789v1450h336z" />
<glyph unicode="M" horiz-adv-x="1538" d="M1368 1450l100 -1450h-305l-43 776l25 209h-19l-217 -897l-305 -18l-227 913h-19l25 -203l-33 -780h-268l78 1450h381l204 -840l31 -202h12l23 200l184 842h373z" />
<glyph unicode="N" horiz-adv-x="1292" d="M1153 1450v-1450h-317l-314 649l-84 225l-14 -4l49 -254v-616h-336v1450h322l301 -645l94 -252l12 6l-47 264v627h334z" />
<glyph unicode="O" horiz-adv-x="1300" d="M479 1100.5q-37 -111.5 -37 -378.5t41 -375.5t171 -108.5t167 110.5t37 392.5q0 311 -57 394q-55 78 -170 77.5t-152 -112zM670 1475q549 0 549 -723q0 -369 -147.5 -573t-440.5 -204q-549 0 -549 721q0 369 147.5 574t440.5 205z" />
<glyph unicode="P" horiz-adv-x="1185" d="M137 1450h525q281 0 387 -133q92 -119 92 -303q0 -190 -113 -334q-59 -78 -179 -124t-288 -46h-88v-510h-336v1450zM473 1221v-469h111q104 0 150 55t46 175t-39 179.5t-157 59.5h-111z" />
<glyph unicode="Q" horiz-adv-x="1294" d="M80 696q0 369 147.5 573t440.5 204q299 0 430 -207q100 -158 114 -394q2 -55 2 -120q0 -365 -144 -568.5t-431 -206.5v-20l535 -104l-97 -232l-653 174l59 197q-403 81 -403 704zM819 349.5q37 111.5 37 377.5t-42 375.5t-171 109.5t-167 -111.5t-38 -391.5 q0 -311 58 -394q55 -78 170.5 -77.5t152.5 112z" />
<glyph unicode="R" horiz-adv-x="1179" d="M137 1450h543q428 0 428 -412q0 -299 -266 -415l315 -623h-360l-238 543h-92v-543h-330v1450zM471 1204v-411h96q182 0 183 219q0 94 -42 143t-145 49h-92z" />
<glyph unicode="S" horiz-adv-x="1087" d="M561 1475q418 0 457 -388l-311 -49q-31 188 -181 189q-61 0 -97 -35t-36 -83t15.5 -81t57.5 -65.5t66.5 -48t94 -52.5t120 -64.5t97.5 -58t102 -80.5q102 -94 102.5 -261t-143 -295t-368.5 -128q-123 0 -255 41t-237 113l121 223q201 -113 364 -112q66 0 118 34.5 t52 102.5q0 74 -69 125q-82 59 -172 100q-80 33 -159 82t-108.5 79t-62.5 73q-63 86 -63 215q0 184 142 304t353 120z" />
<glyph unicode="T" horiz-adv-x="1048" d="M700 1198v-1198h-335v1198h-347l33 252h977l-33 -252h-295z" />
<glyph unicode="U" horiz-adv-x="1280" d="M1143 1450v-1108l22 -324l-243 -32l-41 118l-11 -2q-131 -127 -322.5 -127t-308 100.5t-116.5 303.5v1071h336v-1034q0 -186 180 -187q113 0 168 84v1137h336z" />
<glyph unicode="V" horiz-adv-x="1146" d="M1157 1417l-401 -1417h-367l-391 1417l326 43l227 -923l31 -242h10l31 240l227 925z" />
<glyph unicode="W" horiz-adv-x="1648" d="M1642 1419l-266 -1419h-399l-148 836h-16l4 -131l-133 -705h-377l-289 1419l332 39l170 -942l-2 -172h12l156 993l328 31l155 -885l-2 -139h13l168 1116z" />
<glyph unicode="X" horiz-adv-x="1171" d="M1145 1417l-375 -667l412 -721l-340 -41l-252 504l-234 -504l-319 41l371 694l-381 694l344 43l223 -467l231 467z" />
<glyph unicode="Y" horiz-adv-x="1085" d="M717 0h-334v502q-14 33 -399 917l319 41l242 -651h12l252 651l293 -43l-385 -915v-502z" />
<glyph unicode="Z" horiz-adv-x="940" d="M989 1448v-229l-569 -969h590l-25 -250h-938v231l559 967h-561l27 250h917z" />
<glyph unicode="[" horiz-adv-x="696" d="M625 1655v-240h-217v-1517h217v-240h-484v1997h484z" />
<glyph unicode="\" horiz-adv-x="698" d="M262 1563l426 -1799h-252l-424 1799h250z" />
<glyph unicode="]" horiz-adv-x="696" d="M555 1655v-1997h-485v240h219v1517h-219v240h485z" />
<glyph unicode="^" horiz-adv-x="1263" d="M721 1544l430 -928l-264 -53l-262 574l-246 -572l-266 47l391 895z" />
<glyph unicode="_" horiz-adv-x="962" d="M973 -385h-983v252h983v-252z" />
<glyph unicode="`" horiz-adv-x="688" d="M180 1561l443 -250l-97 -162l-458 199z" />
<glyph unicode="a" horiz-adv-x="985" d="M571 745q0 68 -28.5 100t-110.5 32t-270 -60l-88 193q70 39 193.5 72.5t243.5 33.5t201 -28.5t116.5 -85t47 -111.5t11.5 -139v-385q0 -76 15.5 -123t66.5 -103l-178 -166q-47 23 -91.5 68t-64.5 84h-8q-119 -152 -301 -152q-295 0 -295 306q0 162 93 241.5t269 110.5 l178 31v81zM328 313q0 -100 106 -100q82 0 139 57v193q-131 -18 -188 -50t-57 -100z" />
<glyph unicode="b" d="M891 1012q131 -123 131 -441q0 -166 -43 -287.5t-117 -185.5q-139 -123 -327 -123q-250 0 -441 142v1423l314 35v-449l-29 -75l8 -7q86 72 238.5 72t265.5 -104zM408 254q47 -35 98 -35t74.5 8.5t50.5 38.5q57 59 57 265t-38 273.5t-117.5 67.5t-124.5 -55v-563z" />
<glyph unicode="c" horiz-adv-x="987" d="M188 959.5q129 156.5 357.5 156.5t305.5 -104.5t77 -319.5l-297 -12q0 119 -19.5 155.5t-89 36.5t-99.5 -74.5t-30 -250.5t50.5 -252t162 -76t273.5 62l65 -187q-172 -119 -414 -119q-471 0 -471 555q0 273 129 429.5z" />
<glyph unicode="d" horiz-adv-x="1087" d="M348.5 1087.5q69.5 28.5 175 28.5t174.5 -43l7 6l-31 56v405l313 35v-1251l23 -306l-244 -30l-29 129h-8q-115 -141 -276 -142q-393 0 -394 547q0 166 42 289t110 185.5t137.5 91zM674 840q-49 33 -96.5 32.5t-72 -9.5t-52.5 -40q-59 -63 -59.5 -269t34.5 -270.5 t116 -64.5t130 62v559z" />
<glyph unicode="e" horiz-adv-x="1013" d="M555 1116q205 0 301 -112q80 -92 98 -308q6 -86 7 -215l-146 -20h-422q0 -121 45 -181.5t161 -60.5t280 60l63 -193q-195 -111 -405 -111q-477 0 -478 566q0 266 124 420.5t372 154.5zM532.5 872q-71.5 0 -102.5 -52t-35 -156h250q0 117 -20.5 162.5t-92 45.5z" />
<glyph unicode="f" horiz-adv-x="737" d="M154 1171q0 221 117.5 317.5t286.5 96.5t294 -49l-45 -201q-74 18 -150 19q-188 0 -188 -187v-71h287l-37 -224h-250v-872h-315v872h-166l32 209l134 11v79z" />
<glyph unicode="g" horiz-adv-x="1019" d="M506 1116q190 -6 526 -18l-26 -152l-123 -20q35 -78 35 -183q0 -195 -113 -300t-334 -105q-57 0 -84 2q-39 -31 -39 -47q0 -47 86 -53l164 -13q221 -12 315.5 -67.5t94.5 -204.5q0 -182 -166 -273.5t-404 -91.5q-434 0 -434 256q0 70 32 105t44 47t51 40t45 34 q-74 55 -74 147q0 74 88 137q33 23 39 29q-168 86 -168 330q0 197 115 299t330 102zM258 -86q0 -104 245 -104t245 92q0 49 -52.5 67.5t-199.5 22.5q-123 8 -174 20q-51 -45 -57.5 -63.5t-6.5 -34.5zM585.5 853q-32.5 36 -102 36t-95.5 -40t-26 -124t33 -121t103.5 -37 t95 41t24.5 125t-32.5 120z" />
<glyph unicode="h" d="M393 1020q109 96 266.5 96t241.5 -90t84 -254v-772h-315v739q0 133 -127 133q-76 0 -129 -59v-813h-314v1540l314 35v-467l-29 -84z" />
<glyph unicode="i" horiz-adv-x="514" d="M414 0h-314v1073l314 33v-1106zM246 1165q-170 0 -170 191q0 74 45 122t147 48q168 0 168 -193q0 -74 -45 -121t-145 -47z" />
<glyph unicode="j" horiz-adv-x="514" d="M414 18q0 -162 -54.5 -241.5t-228.5 -188.5l-172 181q98 74 119.5 127t21.5 204v973l314 33v-1088zM246 1165q-170 0 -170 191q0 74 45 122t147 48q168 0 168 -193q0 -74 -45 -121t-145 -47z" />
<glyph unicode="k" horiz-adv-x="1042" d="M412 0h-316v1540l316 35v-1575zM1073 0h-344l-315 557l319 557l289 -82l-303 -479z" />
<glyph unicode="l" horiz-adv-x="514" d="M410 375q0 -100 13 -147.5t66 -112.5l-225 -166q-98 104 -134 183t-36 237v1142l316 35v-1171z" />
<glyph unicode="m" horiz-adv-x="1603" d="M645 1116q180 0 256 -133q109 133 295 133q315 0 315 -391v-725h-315v739q0 133 -109 133q-78 0 -124 -59v-813h-314v739q0 133 -110 133q-74 0 -125 -59v-813h-314v770l-22 305l244 31l28 -125h8q107 135 287 135z" />
<glyph unicode="n" d="M664 1116q154 0 237.5 -90t83.5 -252v-774h-315v739q0 133 -127 133q-74 0 -129 -59v-813h-314v774l-22 301l244 31l28 -123h10q111 133 304 133z" />
<glyph unicode="o" horiz-adv-x="1081" d="M569 1116q113 0 197 -34.5t132 -89t77 -134.5q47 -131 47 -321q0 -293 -164 -445q-125 -117 -344 -117q-113 0 -197 35t-132 89.5t-79 133.5q-47 127 -47 322q0 180 72 317q125 244 438 244zM659.5 799.5q-28.5 72.5 -122 72.5t-119 -69.5t-25.5 -253.5t29 -257t123 -73 t118.5 68.5t24.5 254t-28.5 258z" />
<glyph unicode="p" horiz-adv-x="1087" d="M356 973q106 143 284.5 143t283 -121t104.5 -422q0 -365 -205 -520q-104 -78 -232 -78t-202 45l-8 -6l33 -55v-330l-314 -32v1177l-22 301l244 31l26 -133h8zM414 252q49 -33 122.5 -33t114.5 71.5t41 250t-27.5 255t-115.5 76.5t-135 -61v-559z" />
<glyph unicode="q" horiz-adv-x="1081" d="M545 872q-152 0 -152 -335q0 -176 37 -247t115 -71t129 57v568q-53 28 -129 28zM453 -25q-193 0 -301 156q-92 137 -93 397q0 166 44 286t118 181q145 121 336 121q250 0 430 -86v-1399l-313 -34v368l28 76l-8 6q-85 -72 -241 -72z" />
<glyph unicode="r" horiz-adv-x="780" d="M463 1052.5q72 63.5 167 63.5t173 -39l-72 -248q-63 18 -108 19q-80 0 -144.5 -59.5t-64.5 -174.5v-614h-314v772l-22 303l237 31l37 -225h8q31 108 103 171.5z" />
<glyph unicode="s" horiz-adv-x="935" d="M178 1024q119 92 299 92t280.5 -83t116.5 -232l-274 -53q-14 139 -137 139q-45 0 -74 -26.5t-29 -57.5t7.5 -47.5t23 -30.5t30.5 -25.5t43 -23.5t48 -21q29 -16 131 -58t172 -107.5t70 -190.5t-114 -224.5t-320.5 -99.5t-413.5 121l113 203q205 -88 301 -88 q47 0 78.5 20.5t31.5 61.5q0 43 -45 69q-47 29 -72 39q-195 76 -294 158q-90 74 -90.5 223.5t118.5 241.5z" />
<glyph unicode="t" horiz-adv-x="770" d="M465 1100h276l-36 -228h-240v-469q0 -104 28.5 -145t98.5 -41q29 0 117 21l55 -183q-39 -31 -126 -55.5t-159 -24.5q-203 0 -265 103.5t-62 339.5v454h-158l29 205l135 19l12 204l295 89v-289z" />
<glyph unicode="u" d="M410 -25q-147 0 -231.5 90.5t-84.5 247.5v764l314 29v-754q0 -133 122 -133q78 0 134 60v798l315 29v-791l22 -297l-245 -30l-27 125h-8q-121 -138 -311 -138z" />
<glyph unicode="v" horiz-adv-x="917" d="M627 1108l286 -33l-270 -1075h-367l-284 1077l303 31l162 -829h12z" />
<glyph unicode="w" horiz-adv-x="1480" d="M1182 1108l272 -31l-229 -1077h-351l-135 625h-14l-139 -625h-330l-244 1077l289 31l141 -784h15l151 714l271 27l159 -739h15z" />
<glyph unicode="x" horiz-adv-x="968" d="M664 1108l280 -31l-299 -497l344 -562l-301 -30l-203 374h-12l-192 -374l-291 30l332 560l-310 497l305 31l164 -311h15z" />
<glyph unicode="y" horiz-adv-x="927" d="M637 1106l281 -31l-250 -887q-37 -135 -79 -224t-107.5 -176t-165 -139t-199.5 -59l-111 197q248 45 291 229q-53 176 -158.5 551t-144.5 508l309 31l152 -813h14z" />
<glyph unicode="z" horiz-adv-x="884" d="M836 1092v-207l-467 -654h503l-45 -231h-807v209l455 651h-448l39 232h770z" />
<glyph unicode="{" horiz-adv-x="765" d="M532 356l-22 -317q0 -90 57.5 -156.5t186.5 -79.5l30 -192h-125q-143 0 -270 86q-66 45 -106.5 125t-40.5 157.5t11 189.5t11 188.5t-46 116.5t-138 54v228q90 10 137 52t47 112.5t-11 183.5t-11 195.5t41 162.5t106 123q131 86 270 86h123l-28 -192q-129 -12 -185.5 -79 t-56.5 -157l20 -319q0 -109 -64.5 -184.5t-133.5 -94.5v-12q70 -18 134 -93t64 -184z" />
<glyph unicode="|" horiz-adv-x="569" d="M422 1556v-1863h-275v1863h275z" />
<glyph unicode="}" horiz-adv-x="763" d="M231 924l21 319q0 90 -56.5 156.5t-185.5 79.5l-28 192h122q139 0 271 -86q66 -43 106.5 -123t40.5 -162.5t-11 -195.5t-11 -166q0 -162 184 -182v-228q-90 -14 -137 -54t-47 -116.5t11 -188.5t11 -189.5t-41 -157.5t-104 -125q-129 -86 -273 -86h-124l30 192 q129 12 187.5 79t58.5 157q0 53 -12.5 157.5t-12.5 159.5q0 109 64.5 183.5t134.5 93.5v12q-70 18 -134.5 94t-64.5 185z" />
<glyph unicode="~" horiz-adv-x="1058" d="M709 397q-76 0 -201 50.5t-184 50.5q-35 0 -56.5 -7.5t-29 -9.5t-20.5 -9t-18 -10t-19.5 -12.5t-18.5 -11.5q-25 -20 -43 -28l-60 174q88 80 146.5 113.5t131.5 33.5t208 -55t178 -55t63.5 4t41 14t32.5 17.5t38 26.5t38 28l53 -176q-149 -138 -280 -138z" />
<glyph unicode="&#xa1;" horiz-adv-x="638" d="M461 647l45 -1012l-367 -20l45 1012zM330 1118q178 0 178 -194q0 -76 -48 -127.5t-149 -51.5q-176 0 -176 195q0 76 47.5 127t147.5 51z" />
<glyph unicode="&#xa2;" horiz-adv-x="1073" d="M651 1036q-231 0 -231 -364q0 -166 43 -231.5t148.5 -65.5t246.5 63l66 -172q-123 -100 -287 -123l8 -286l-303 -37l57 332q-147 35 -228 152.5t-81 309.5q0 262 106.5 436.5t315.5 211.5l-4 266l305 37l-61 -301q139 -29 241 -113l-106 -176q-158 61 -236 61z" />
<glyph unicode="&#xa3;" horiz-adv-x="1077" d="M727 1055q-139 0 -156 -137q-6 -70 -8 -93h338l-88 -202h-272q-4 -145 -74 -232q14 -2 88 -21.5t123 -19.5q104 0 223 62l60 -162q-147 -125 -302 -125q-86 0 -197.5 38t-178 38t-154.5 -66l-92 166q61 45 133 70q49 33 70 75q25 49 28 177h-174l53 176l138 20l8 94 q31 367 409 367q145 0 240 -39q35 -14 105 -47l-105 -180q-113 41 -215 41z" />
<glyph unicode="&#xa4;" horiz-adv-x="1335" d="M1079 977q63 -100 63.5 -270t-98.5 -306l160 -155l-219 -178l-131 192q-106 -41 -229 -41t-209 35l-127 -186l-213 182l155 149q-59 96 -59 242q0 221 129 358l-145 162l229 166l119 -207q86 27 197.5 27t197.5 -33l170 215l203 -188zM672 907q-180 0 -180 -256 q0 -190 149 -190q182 0 182 254q1 192 -151 192z" />
<glyph unicode="&#xa5;" horiz-adv-x="1085" d="M760 1276l284 -31l-278 -502h192l-73 -188h-226l-14 -92h262l-73 -180h-216l-18 -140h-297l19 140h-273l82 180h215l14 92h-276l74 188h133l-174 502l284 33l125 -514h21z" />
<glyph unicode="&#xa6;" horiz-adv-x="542" d="M127 442h281v-749h-281v749zM127 1556h281v-749h-281v749z" />
<glyph unicode="&#xa7;" horiz-adv-x="1062" d="M553 1329q-66 0 -106.5 -27.5t-40.5 -82.5q0 -66 34 -93q16 -14 25.5 -22t37 -21.5t42.5 -19.5q156 -61 225.5 -100t122.5 -82q102 -78 102 -226q0 -219 -200 -319q145 -98 145 -265t-124 -270.5t-340 -103.5t-443 125l98 217q57 -29 164.5 -65.5t185.5 -36.5 q150 0 150 112q0 41 -33 75t-76 55.5t-79.5 36.5t-41 17.5t-10.5 4.5t-10 4q-147 66 -235.5 149.5t-88.5 200.5q0 205 205 321q-166 115 -166 281t118 270.5t341 104.5t410 -129l-86 -201q-193 90 -326 90zM358 649q0 -72 56.5 -116t169.5 -91q55 25 85.5 67t30.5 99.5 t-50 98.5t-179 98q-113 -58 -113 -156z" />
<glyph unicode="&#xa8;" horiz-adv-x="901" d="M246 1507q154 0 153 -170q0 -66 -41 -108.5t-129 -42.5q-154 0 -153 168q0 153 170 153zM672 1507q156 0 155 -170q0 -66 -41 -108.5t-131 -42.5q-154 0 -153 168q0 68 41 110.5t129 42.5z" />
<glyph unicode="&#xa9;" horiz-adv-x="1556" d="M551 842.5q90 113.5 248.5 113.5t219 -77.5t60.5 -221.5l-192 -18q0 82 -19.5 114.5t-79.5 32.5q-115 0 -114.5 -239.5t117.5 -239.5q49 0 72.5 27.5t23.5 99.5l192 -16q0 -115 -78.5 -200t-203.5 -85q-162 0 -249 101.5t-87 298t90 310zM277.5 1077q197.5 207 526.5 207 t502 -202.5t173 -532.5t-197 -536t-526.5 -206t-502.5 202t-173 531.5t197.5 536.5zM1171.5 956.5q-120.5 151.5 -369.5 151.5t-392.5 -156.5t-143.5 -409.5t126 -405.5t370 -152.5t387 154.5t143 410.5t-120.5 407.5z" />
<glyph unicode="&#xaa;" horiz-adv-x="753" d="M670 1389q27 -43 35 -84t8 -103v-274q0 -51 2 -76q4 -61 59 -123l-133 -119q-76 41 -113 115h-4q-59 -57 -112.5 -86t-126.5 -29q-217 0 -217 226q0 125 69.5 184t198.5 82l145 24v70q0 55 -24.5 83t-87 28t-207.5 -43l-60 137q152 74 333.5 74t234.5 -86zM287 860 q0 -90 88 -90q59 0 108 45v178q-106 -18 -151 -46t-45 -87z" />
<glyph unicode="&#xab;" horiz-adv-x="1054" d="M563 913l-190 -401l190 -401l-213 -62l-256 463l254 463zM973 913l-191 -401l191 -401l-213 -62l-254 463l252 463z" />
<glyph unicode="&#xac;" horiz-adv-x="1234" d="M1128 750v-568l-245 -24v344h-789l37 248h997z" />
<glyph unicode="&#xad;" horiz-adv-x="700" d="M623 635v-232h-545v232h545z" />
<glyph unicode="&#xae;" horiz-adv-x="1093" d="M352 1333h219q86 0 125 -44t39 -113q0 -102 -96 -150l139 -229h-155l-115 204h-19v-204h-137v536zM489 1225v-121h48q51 0 51 60.5t-47 60.5h-52zM195.5 1435.5q138.5 145.5 368 145.5t351 -142.5t121.5 -373.5t-138 -375.5t-367.5 -144.5t-351.5 141t-122 372.5 t138.5 377zM820 1344.5q-85 105.5 -258 105.5t-274.5 -108.5t-101.5 -283.5t88 -280.5t260.5 -105.5t271.5 106.5t99 283.5t-85 282.5z" />
<glyph unicode="&#xaf;" horiz-adv-x="661" d="M49 1450h563v-205h-563v205z" />
<glyph unicode="&#xb0;" horiz-adv-x="757" d="M389 1475q86 0 147.5 -31t90.5 -80q53 -88 53 -180q0 -143 -86 -228.5t-225 -85.5q-82 0 -143.5 31t-92.5 78q-57 90 -57 182q0 141 87 227.5t226 86.5zM375 1286q-90 0 -90 -121q0 -47 24.5 -77.5t71.5 -30.5q92 0 92 114.5t-98 114.5z" />
<glyph unicode="&#xb1;" horiz-adv-x="1153" d="M690 856h367l-43 -227h-324v-328l-227 -37v365h-369l43 227h326v326l227 39v-365zM1057 180l-41 -227h-920l43 227h918z" />
<glyph unicode="&#xb2;" horiz-adv-x="815" d="M86 1401q137 78 300 78t242 -74t79 -197q0 -170 -246 -346l-144 -102l13 -12l110 40h285l-41 -165h-586v174l164 141q109 90 156 148.5t47 112.5t-33 83t-99.5 29t-178.5 -47z" />
<glyph unicode="&#xb3;" horiz-adv-x="794" d="M113 1411q154 68 293 68t208.5 -58.5t69.5 -146.5q0 -131 -121 -193q84 -51 111 -86q39 -51 39 -106q0 -135 -95.5 -207t-264.5 -72t-281 82l73 135q121 -51 226.5 -51t105.5 105q0 94 -125 94h-121v155q217 0 218 107q0 76 -82 76t-191 -29z" />
<glyph unicode="&#xb4;" horiz-adv-x="688" d="M508 1573l115 -211l-459 -199l-96 160z" />
<glyph unicode="&#xb5;" horiz-adv-x="1128" d="M997 367q0 -76 16.5 -123t67.5 -103l-178 -166q-88 45 -147 142l-8 10q-41 -66 -120 -109t-159 -43t-111 37l-6 -6l68 -102v-273l-316 -34v1480l316 29v-756q0 -133 129 -133q78 0 135 62v798l313 29v-739z" />
<glyph unicode="&#xb6;" horiz-adv-x="1218" d="M1149 1434v-158h-98v-1036q0 -131 -66.5 -225.5t-183.5 -176.5l-262 -168l-117 140q104 72 126.5 122t22.5 172v404h-112q-106 0 -186 39t-126 104q-88 131 -88 312q0 471 402 471h688zM772 1276v-1194q84 70 84 160v1034h-84zM414 1124.5q-8 -61.5 -8 -184.5t28.5 -202 t104.5 -79h32v621h-32q-55 0 -86 -47t-39 -108.5z" />
<glyph unicode="&#xb7;" horiz-adv-x="464" d="M240 791q156 0 155 -175q0 -66 -42 -111.5t-132 -45.5q-156 0 -155 172q0 68 42 114t132 46z" />
<glyph unicode="&#xb8;" horiz-adv-x="481" d="M436 -223q0 -88 -55 -133t-148.5 -45t-187.5 45l43 108q78 -23 127 -22.5t49 41.5q0 33 -64.5 47t-84.5 18l57 217h131l-16 -135q10 -4 34.5 -10t34.5 -10q80 -33 80 -121z" />
<glyph unicode="&#xb9;" horiz-adv-x="743" d="M672 623h-559v139l174 24v340l47 127l-8 9l-74 -62l-105 -47l-71 133l198 131l72 62l186 -21l-16 -223v-451l156 -22v-139z" />
<glyph unicode="&#xba;" horiz-adv-x="866" d="M461 1479q236 0 305 -197q33 -96 33 -261t-91.5 -288t-291.5 -123q-215 0 -285 144q-61 123 -61 299t95 301t296 125zM531.5 1241q-25.5 59 -100.5 59t-96.5 -55t-21.5 -196.5t26 -201t100.5 -59.5t96 55.5t21.5 197t-25.5 200.5z" />
<glyph unicode="&#xbb;" horiz-adv-x="1054" d="M707 975l251 -463l-251 -463l-215 62l190 401l-190 401zM297 975l252 -463l-252 -463l-215 62l190 401l-190 401z" />
<glyph unicode="&#xbc;" horiz-adv-x="1824" d="M1423 307v84l43 176l152 19v-279h141l-33 -149h-108v-154l-195 -22v176h-366v184l309 508l139 -94l-250 -449h168zM1346 1470l-644 -1480l-174 80l643 1480zM651 623h-559v139l174 24v340l47 127l-8 9l-74 -62l-104 -47l-74 133l201 131l72 62l184 -21l-14 -223v-451 l155 -22v-139z" />
<glyph unicode="&#xbd;" horiz-adv-x="1878" d="M1174 778q137 78 298.5 78t241.5 -73.5t80 -196.5q0 -170 -246 -346l-143 -103l12 -12l109 41h286l-43 -166h-583v174l164 141q111 96 156.5 152.5t45.5 110t-33.5 82t-99 28.5t-178.5 -47zM1346 1470l-644 -1480l-174 80l643 1480zM651 623h-559v139l174 24v340l47 127 l-8 9l-74 -62l-104 -47l-74 133l201 131l72 62l184 -21l-14 -223v-451l155 -22v-139z" />
<glyph unicode="&#xbe;" horiz-adv-x="1804" d="M1346 1470l-641 -1480l-177 80l643 1480zM104 1411q156 68 295.5 68t208 -58.5t68.5 -146.5q0 -129 -119 -193q6 -6 27.5 -18t39 -25.5t25.5 -22.5t21.5 -24.5t19.5 -29.5q16 -39 17 -72q0 -135 -95.5 -207t-264.5 -72t-284 82l76 135q121 -51 225.5 -51t104.5 105 q0 94 -123 94h-123v155q219 0 219 107q0 76 -81.5 76t-190.5 -29zM1403 307v84l43 176l151 19v-279h144l-35 -149h-109v-154l-194 -22v176h-367v184l312 508l137 -94l-250 -449h168z" />
<glyph unicode="&#xbf;" horiz-adv-x="925" d="M688 678q14 -195 14 -250t-34.5 -102t-110.5 -111q-63 -49 -91 -73.5t-52.5 -66.5t-24.5 -89q0 -131 166 -131q61 0 143 26.5t105 32.5l76 -180q-182 -115 -397.5 -115t-323 94t-107.5 234.5t53.5 215.5t151.5 141.5t114.5 102t20.5 105.5l6 135zM547 1116 q174 0 174 -190q0 -74 -47 -125t-146 -51q-174 0 -174 192q0 74 47.5 124t145.5 50z" />
<glyph unicode="&#xc0;" horiz-adv-x="1163" d="M770 1681l-90 -165l-475 176l104 217zM764 1460l391 -1460h-338l-82 354h-313l-84 -354h-332l383 1425zM573 1092l-106 -494h225l-94 494h-25z" />
<glyph unicode="&#xc1;" horiz-adv-x="1163" d="M844 1909l104 -217l-473 -176l-92 165zM764 1460l391 -1460h-338l-82 354h-313l-84 -354h-332l383 1425zM573 1092l-106 -494h225l-94 494h-25z" />
<glyph unicode="&#xc2;" horiz-adv-x="1163" d="M651 1892l271 -254l-113 -116l-227 166l-228 -166l-112 116l270 254h139zM764 1460l391 -1460h-338l-82 354h-313l-84 -354h-332l383 1425zM573 1092l-106 -494h225l-94 494h-25z" />
<glyph unicode="&#xc3;" horiz-adv-x="1163" d="M764 1460l391 -1460h-338l-82 354h-313l-84 -354h-332l383 1425zM573 1092l-106 -494h225l-94 494h-25zM684 1573q-53 0 -128 32.5t-116 32.5q-76 0 -161 -61l-66 149q125 123 260 123q55 0 129 -32.5t124 -32.5t157 63l59 -151q-139 -123 -258 -123z" />
<glyph unicode="&#xc4;" horiz-adv-x="1157" d="M373 1880q154 0 153 -170q0 -68 -40 -111t-130 -43q-154 0 -153 168q0 68 40 112t130 44zM801 1880q154 0 153 -170q0 -154 -172 -154q-152 0 -151 168q0 68 40 112t130 44zM762 1460l389 -1460h-336l-82 354h-313l-84 -354h-332l383 1425zM571 1092l-106 -494h223 l-94 494h-23z" />
<glyph unicode="&#xc5;" horiz-adv-x="1157" d="M762 1460l389 -1460h-336l-82 354h-313l-84 -354h-332l383 1425zM571 1092l-106 -494h223l-94 494h-23zM583.5 1933q102.5 0 152.5 -57t50 -142t-56 -150.5t-156.5 -65.5t-151.5 59t-51 145t55 148.5t157.5 62.5zM573 1802q-33 0 -50 -20.5t-17 -52.5q0 -80 76 -80 q31 0 49 20.5t18 52.5q0 80 -76 80z" />
<glyph unicode="&#xc6;" horiz-adv-x="1689" d="M1112 1194v-330h447l-37 -250h-410v-360h541l-37 -254h-840v354h-325l-138 -354h-333l589 1450h1073l-36 -256h-494zM776 598v520h-35l-204 -520h239z" />
<glyph unicode="&#xc7;" horiz-adv-x="1138" d="M795 -223q0 -88 -55.5 -133t-149.5 -45t-189 45l43 108q84 -23 130.5 -22.5t46.5 40.5t-136 64q-4 0 -8 1t-6 1l39 152q-449 76 -449 733q0 211 56.5 375t190.5 271.5t355.5 107.5t321.5 -114t100 -376l-333 -16q0 141 -30 192t-98.5 51t-107.5 -33.5t-59 -103.5 q-35 -119 -35 -363.5t73.5 -358t243.5 -113.5q104 0 295 61l68 -213q-213 -111 -453 -113l-6 -57q4 -2 30.5 -9t36 -10t31 -15.5t29.5 -24.5q25 -37 25 -82z" />
<glyph unicode="&#xc8;" horiz-adv-x="1069" d="M770 1681l-90 -165l-473 176l102 217zM137 1450h885l-37 -256h-512v-330h463l-35 -250h-428v-360h559l-37 -254h-858v1450z" />
<glyph unicode="&#xc9;" horiz-adv-x="1071" d="M848 1909l102 -217l-473 -176l-90 165zM137 1450h885l-37 -256h-512v-330h463l-35 -250h-428v-360h559l-37 -254h-858v1450z" />
<glyph unicode="&#xca;" horiz-adv-x="1069" d="M643 1892l270 -254l-112 -116l-228 166l-227 -166l-113 116l271 254h139zM137 1450h885l-37 -256h-512v-330h463l-35 -250h-428v-360h559l-37 -254h-858v1450z" />
<glyph unicode="&#xcb;" horiz-adv-x="1069" d="M369 1880q152 0 151 -170q0 -68 -40 -111t-130 -43q-154 0 -153 168q0 68 41 112t131 44zM795 1880q154 0 153 -170q0 -68 -40 -111t-130 -43q-154 0 -153 168q0 68 40 112t130 44zM137 1450h885l-37 -256h-512v-330h463l-35 -250h-428v-360h559l-37 -254h-858v1450z" />
<glyph unicode="&#xcc;" horiz-adv-x="610" d="M506 1681l-90 -165l-475 176l104 217zM473 1450v-1450h-336v1450h336z" />
<glyph unicode="&#xcd;" horiz-adv-x="610" d="M561 1909l103 -217l-474 -176l-92 165zM473 1450v-1450h-334v1450h334z" />
<glyph unicode="&#xce;" horiz-adv-x="610" d="M377 1892l264 -254l-113 -116l-221 166l-219 -166l-113 116l265 254h137zM473 1450v-1450h-336v1450h336z" />
<glyph unicode="&#xcf;" horiz-adv-x="610" d="M119 1880q152 0 151 -170q0 -68 -40 -111t-130 -43q-154 0 -153 168q0 68 41 112t131 44zM516 1880q154 0 154 -170q0 -68 -40 -111t-130 -43q-154 0 -154 168q0 68 40 112t130 44zM473 1450v-1450h-336v1450h336z" />
<glyph unicode="&#xd0;" horiz-adv-x="1263" d="M162 1450h465q141 0 247.5 -43t167 -109.5t97.5 -167.5q61 -168 61 -409q0 -293 -125 -498q-63 -104 -177 -163.5t-267 -59.5h-469v616h-146l23 197l80 23l43 2v612zM496 1196v-358h198l-28 -222h-170v-362h129q156 0 194 190q20 106 20.5 320.5t-50 323t-181.5 108.5 h-112z" />
<glyph unicode="&#xd1;" horiz-adv-x="1292" d="M752 1581q-51 0 -127 32t-125 32t-156 -68l-49 147q129 117 246 117q55 0 128.5 -31.5t124 -31.5t156.5 69l49 -151q-128 -115 -247 -115zM1153 1450v-1450h-317l-342 733l-56 141l-14 -4l49 -254v-616h-336v1450h322l342 -764l53 -133l12 6l-47 264v627h334z" />
<glyph unicode="&#xd2;" horiz-adv-x="1300" d="M846 1681l-90 -165l-475 176l104 217zM479 1100.5q-37 -111.5 -37 -378.5t41 -375.5t171 -108.5t167 110.5t37 392.5q0 311 -57 394q-55 78 -170 77.5t-152 -112zM670 1475q549 0 549 -723q0 -369 -147.5 -573t-440.5 -204q-549 0 -549 721q0 369 147.5 574t440.5 205z " />
<glyph unicode="&#xd3;" horiz-adv-x="1300" d="M922 1909l104 -217l-475 -176l-90 165zM479 1100.5q-37 -111.5 -37 -378.5t41 -375.5t171 -108.5t167 110.5t37 392.5q0 311 -57 394q-55 78 -170 77.5t-152 -112zM670 1475q549 0 549 -723q0 -369 -147.5 -573t-440.5 -204q-549 0 -549 721q0 369 147.5 574t440.5 205z " />
<glyph unicode="&#xd4;" horiz-adv-x="1300" d="M729 1892l270 -254l-112 -116l-228 166l-227 -166l-113 116l271 254h139zM479 1100.5q-37 -111.5 -37 -378.5t41 -375.5t171 -108.5t167 110.5t37 392.5q0 311 -57 394q-55 78 -170 77.5t-152 -112zM670 1475q549 0 549 -723q0 -369 -147.5 -573t-440.5 -204 q-549 0 -549 721q0 369 147.5 574t440.5 205z" />
<glyph unicode="&#xd5;" horiz-adv-x="1300" d="M479 1100.5q-37 -111.5 -37 -378.5t41 -375.5t171 -108.5t167 110.5t37 392.5q0 311 -57 394q-55 78 -170 77.5t-152 -112zM670 1473q549 0 549 -721q0 -369 -147.5 -573t-440.5 -204q-549 0 -549 721q0 369 147.5 573t440.5 204zM776 1573q-53 0 -130 31.5t-116 31.5 q-74 0 -161 -59l-66 147q125 123 262 123q53 0 127 -31.5t126 -31.5t155 61l59 -151q-139 -121 -256 -121z" />
<glyph unicode="&#xd6;" horiz-adv-x="1300" d="M455 1880q154 0 153 -170q0 -68 -41 -111t-129 -43q-156 0 -155 168q0 68 41 112t131 44zM881 1880q154 0 153 -170q0 -154 -170 -154q-154 0 -153 168q0 68 41 112t129 44zM479 1100.5q-37 -111.5 -37 -378.5t41 -375.5t171 -108.5t167 110.5t37 392.5q0 311 -57 394 q-55 78 -170 77.5t-152 -112zM670 1473q549 0 549 -721q0 -369 -147.5 -573t-440.5 -204q-549 0 -549 721q0 369 147.5 573t440.5 204z" />
<glyph unicode="&#xd7;" horiz-adv-x="1103" d="M979 825l-260 -260l231 -231l-159 -199l-252 250l-222 -223l-213 143l256 258l-225 228l156 202l248 -250l231 232z" />
<glyph unicode="&#xd8;" horiz-adv-x="1298" d="M1219 752q0 -369 -147.5 -573t-440.5 -204q-109 0 -205 31l-74 -174l-135 57l80 187q-215 162 -215 620q0 369 147.5 574t440.5 205q115 0 215 -37l67 161l138 -59l-76 -176q205 -166 205 -612zM766 1171q-51 41 -121 41t-110.5 -27.5t-62 -77.5t-33 -119.5t-11.5 -156 t4 -199t35 -183.5zM545 268q43 -31 111.5 -30.5t109.5 27t61 75.5q45 96 45 332q0 223 -32 309z" />
<glyph unicode="&#xd9;" horiz-adv-x="1280" d="M887 1681l-90 -165l-473 176l102 217zM1143 1450v-1108l22 -324l-243 -32l-41 118l-11 -2q-131 -127 -322.5 -127t-308 100.5t-116.5 303.5v1071h336v-1034q0 -186 180 -187q113 0 168 84v1137h336z" />
<glyph unicode="&#xda;" horiz-adv-x="1280" d="M897 1909l102 -217l-473 -176l-90 165zM1143 1450v-1108l22 -324l-243 -32l-41 118l-11 -2q-131 -127 -322.5 -127t-308 100.5t-116.5 303.5v1071h336v-1034q0 -186 180 -187q113 0 168 84v1137h336z" />
<glyph unicode="&#xdb;" horiz-adv-x="1280" d="M702 1892l273 -254l-113 -116l-227 166l-229 -166l-111 116l270 254h137zM1143 1450v-1108l22 -324l-243 -32l-41 118l-11 -2q-131 -127 -322.5 -127t-308 100.5t-116.5 303.5v1071h336v-1034q0 -186 180 -187q113 0 168 84v1137h336z" />
<glyph unicode="&#xdc;" horiz-adv-x="1286" d="M428 1880q154 0 154 -170q0 -68 -41 -111t-129 -43q-154 0 -154 168q0 68 40 112t130 44zM856 1880q154 0 154 -170q0 -154 -172 -154q-154 0 -154 168q0 68 41 112t131 44zM1143 1450v-1108l22 -324l-243 -32l-41 118l-11 -2q-131 -127 -322.5 -127t-308 100.5 t-116.5 303.5v1071h336v-1034q0 -186 180 -187q113 0 168 84v1137h336z" />
<glyph unicode="&#xdd;" horiz-adv-x="1085" d="M819 1909l103 -217l-473 -176l-91 165zM717 0h-334v502q-14 33 -399 917l319 41l242 -651h12l252 651l293 -43l-385 -915v-502z" />
<glyph unicode="&#xde;" horiz-adv-x="1134" d="M459 1450v-244h190q266 0 371.5 -118.5t105.5 -317.5q0 -188 -110 -334q-59 -78 -180 -124t-289 -46h-88v-266h-336v1450h336zM459 975v-469h112q104 0 150.5 56t46.5 175t-39 178.5t-158 59.5h-112z" />
<glyph unicode="&#xdf;" horiz-adv-x="1257" d="M912.5 1477.5q117.5 -91.5 117.5 -256.5q0 -162 -80 -244q-33 -35 -65 -62q-78 -63 -78 -109t40 -81t97 -65.5t114.5 -67.5t97.5 -102.5t40 -151.5q0 -152 -120 -257.5t-292 -105.5t-299 64l86 203q117 -43 192 -43t108.5 32.5t33.5 77.5t-26.5 77t-53 47.5t-114.5 61.5 t-140.5 107.5t-52.5 165.5q0 106 80 178l66 62q82 70 81 182q0 68 -39.5 106.5t-111.5 38.5q-162 0 -162 -186v-1149h-305v1135q0 115 42 201.5t112 136.5q137 96 325.5 96t306 -91.5z" />
<glyph unicode="&#xe0;" horiz-adv-x="995" d="M649 1323l-96 -160l-459 199l113 211zM275.5 1082.5q123.5 33.5 243.5 33.5t201 -28.5t116.5 -85t47 -111.5t11.5 -139v-385q0 -76 15.5 -123t66.5 -103l-178 -166q-47 23 -91 68t-65 84h-8q-119 -152 -301 -152q-295 0 -295 306q0 162 93 241.5t269 110.5l179 31v81 q0 68 -29 100t-111 32t-270 -60l-88 193q70 39 193.5 72.5zM336 313q0 -100 106 -100q82 0 140 57v193q-131 -18 -188.5 -50t-57.5 -100z" />
<glyph unicode="&#xe1;" horiz-adv-x="995" d="M831 1362l-458 -199l-97 160l443 250zM275.5 1082.5q123.5 33.5 243.5 33.5t201 -28.5t116.5 -85t47 -111.5t11.5 -139v-385q0 -76 15.5 -123t66.5 -103l-178 -166q-47 23 -91 68t-65 84h-8q-119 -152 -301 -152q-295 0 -295 306q0 162 93 241.5t269 110.5l179 31v81 q0 68 -29 100t-111 32t-270 -60l-88 193q70 39 193.5 72.5zM336 313q0 -100 106 -100q82 0 140 57v193q-131 -18 -188.5 -50t-57.5 -100z" />
<glyph unicode="&#xe2;" horiz-adv-x="995" d="M539 1540l270 -264l-113 -117l-227 174l-227 -174l-113 117l268 264h142zM275.5 1082.5q123.5 33.5 243.5 33.5t201 -28.5t116.5 -85t47 -111.5t11.5 -139v-385q0 -76 15.5 -123t66.5 -103l-178 -166q-47 23 -91 68t-65 84h-8q-119 -152 -301 -152q-295 0 -295 306 q0 162 93 241.5t269 110.5l179 31v81q0 68 -29 100t-111 32t-270 -60l-88 193q70 39 193.5 72.5zM336 313q0 -100 106 -100q82 0 140 57v193q-131 -18 -188.5 -50t-57.5 -100z" />
<glyph unicode="&#xe3;" horiz-adv-x="995" d="M573 1200q-53 0 -129.5 33t-115.5 33q-78 0 -160 -62l-66 150q123 121 260 121q55 0 127 -32t123.5 -32t157.5 64l61 -152q-141 -123 -258 -123zM580 745q0 68 -29 100t-111 32t-270 -60l-88 193q70 39 193.5 72.5t243.5 33.5t201 -28.5t116.5 -85t47 -111.5t11.5 -139 v-385q0 -76 15.5 -123t66.5 -103l-178 -166q-47 23 -91 68t-65 84h-8q-119 -152 -301 -152q-295 0 -295 306q0 162 93 241.5t269 110.5l179 31v81zM336 313q0 -100 106 -100q82 0 140 57v193q-131 -18 -188.5 -50t-57.5 -100z" />
<glyph unicode="&#xe4;" horiz-adv-x="995" d="M281 1507q154 0 153 -170q0 -66 -41 -108.5t-129 -42.5q-156 0 -155 168q0 153 172 153zM707 1507q154 0 153 -170q0 -152 -170 -151q-154 0 -153 168q0 68 41 110.5t129 42.5zM275.5 1082.5q123.5 33.5 243.5 33.5t201 -28.5t116.5 -85t47 -111.5t11.5 -139v-385 q0 -76 15.5 -123t66.5 -103l-178 -166q-47 23 -91 68t-65 84h-8q-119 -152 -301 -152q-295 0 -295 306q0 162 93 241.5t269 110.5l179 31v81q0 68 -29 100t-111 32t-270 -60l-88 193q70 39 193.5 72.5zM336 313q0 -100 106 -100q82 0 140 57v193q-131 -18 -188.5 -50 t-57.5 -100z" />
<glyph unicode="&#xe5;" horiz-adv-x="995" d="M275.5 1082.5q123.5 33.5 243.5 33.5t201 -28.5t116.5 -85t47 -111.5t11.5 -139v-385q0 -76 15.5 -123t66.5 -103l-178 -166q-47 23 -91 68t-65 84h-8q-119 -152 -301 -152q-295 0 -295 306q0 162 93 241.5t269 110.5l179 31v81q0 68 -29 100t-111 32t-270 -60l-88 193 q70 39 193.5 72.5zM336 313q0 -100 106 -100q82 0 140 57v193q-131 -18 -188.5 -50t-57.5 -100zM503.5 1575q102.5 0 153 -57.5t50.5 -142.5t-56.5 -150.5t-157 -65.5t-151.5 59.5t-51 145.5t55 148.5t157.5 62.5zM504 1290q31 0 49 21.5t18 52.5q0 80 -77 80 q-33 0 -50.5 -20.5t-17.5 -53.5q0 -80 78 -80z" />
<glyph unicode="&#xe6;" horiz-adv-x="1511" d="M506 1116q184 0 260 -117q113 117 293 117q199 0 295 -112q80 -92 96 -308q8 -86 8 -215l-145 -20h-418q0 -121 42 -181.5t159.5 -60.5t281.5 60l64 -193q-195 -111 -408 -111q-250 0 -360 168q-141 -168 -352 -168q-291 0 -291 306q0 162 93 241.5t269 112.5l178 31v79 q0 68 -28.5 100t-110.5 32t-270 -60l-88 193q70 41 192.5 73.5t239.5 32.5zM328 313q0 -104 106 -104q90 0 139 74v182q-133 -20 -189 -51t-56 -101zM1123.5 827q-19.5 45 -92.5 45t-102.5 -52t-33.5 -156h248q0 118 -19.5 163z" />
<glyph unicode="&#xe7;" horiz-adv-x="987" d="M188 959.5q129 156.5 357.5 156.5t305.5 -104.5t77 -319.5l-297 -12q0 119 -19.5 155.5t-89 36.5t-99.5 -74.5t-30 -250.5t50.5 -252t162 -76t273.5 62l65 -187q-166 -113 -391 -117l-6 -59q6 -2 26.5 -7t29.5 -9t26.5 -11.5t27 -16.5t19.5 -21q20 -25 20 -76 q0 -88 -55 -133t-148.5 -45t-187.5 45l43 108q84 -23 130 -22.5t46 40.5t-135 64q-4 0 -8 1t-6 1l37 148q-352 63 -353 546q0 273 129 429.5z" />
<glyph unicode="&#xe8;" horiz-adv-x="1013" d="M555 1116q205 0 301 -112q80 -92 98 -308q6 -86 7 -215l-146 -20h-422q0 -121 45 -181.5t161 -60.5t280 60l63 -193q-195 -111 -405 -111q-477 0 -478 566q0 266 124 420.5t372 154.5zM532.5 872q-71.5 0 -102.5 -52t-35 -156h250q0 117 -20.5 162.5t-92 45.5zM143 1362 l115 211l442 -250l-96 -160z" />
<glyph unicode="&#xe9;" horiz-adv-x="1013" d="M555 1116q205 0 301 -112q80 -92 98 -308q6 -86 7 -215l-146 -20h-422q0 -121 45 -181.5t161 -60.5t280 60l63 -193q-195 -111 -405 -111q-477 0 -478 566q0 266 124 420.5t372 154.5zM532.5 872q-71.5 0 -102.5 -52t-35 -156h250q0 117 -20.5 162.5t-92 45.5zM756 1573 l114 -211l-460 -199l-97 160z" />
<glyph unicode="&#xea;" horiz-adv-x="1013" d="M555 1116q205 0 301 -112q80 -92 98 -308q6 -86 7 -215l-146 -20h-422q0 -121 45 -181.5t161 -60.5t280 60l63 -193q-195 -111 -405 -111q-477 0 -478 566q0 266 124 420.5t372 154.5zM532.5 872q-71.5 0 -102.5 -52t-35 -156h250q0 117 -20.5 162.5t-92 45.5zM598 1540 l270 -264l-112 -117l-228 174l-227 -174l-113 117l269 264h141z" />
<glyph unicode="&#xeb;" horiz-adv-x="1013" d="M555 1116q205 0 301 -112q80 -92 98 -308q6 -86 7 -215l-146 -20h-422q0 -121 45 -181.5t161 -60.5t280 60l63 -193q-195 -111 -405 -111q-477 0 -478 566q0 266 124 420.5t372 154.5zM532.5 872q-71.5 0 -102.5 -52t-35 -156h250q0 117 -20.5 162.5t-92 45.5zM317 1507 q152 0 152 -170q0 -66 -40 -108.5t-130 -42.5q-154 0 -154 168q0 153 172 153zM743 1507q154 0 154 -170q0 -66 -40 -108.5t-130 -42.5q-154 0 -154 168q0 68 40 110.5t130 42.5z" />
<glyph unicode="&#xec;" horiz-adv-x="514" d="M100 0v1073l314 33v-1106h-314zM410 1149l-459 199l115 213l440 -250z" />
<glyph unicode="&#xed;" horiz-adv-x="514" d="M457 1561l114 -213l-458 -199l-99 162zM414 0h-314v1073l314 33v-1106z" />
<glyph unicode="&#xee;" horiz-adv-x="514" d="M328 1540l231 -264l-113 -117l-188 170l-192 -170l-111 117l231 264h142zM414 0h-314v1073l314 33v-1106z" />
<glyph unicode="&#xef;" horiz-adv-x="514" d="M86 1499q145 0 145 -162q0 -61 -38.5 -102t-120.5 -41q-145 0 -146 160q0 63 37 104t123 41zM444 1499q145 0 146 -162q0 -61 -38 -102t-124 -41q-143 0 -143 160q0 63 37.5 104t121.5 41zM414 0h-314v1073l314 33v-1106z" />
<glyph unicode="&#xf0;" horiz-adv-x="1128" d="M980 962.5q85 -206.5 85 -444t-126 -390.5t-390 -153q-217 0 -342 121t-125 307.5t114.5 312.5t323.5 126q59 0 123 -22.5t84 -49.5q-49 219 -215 354l-174 -143l-135 143l119 136q-88 51 -187 88l119 211q201 -76 276 -117l148 121l162 -121l-119 -129 q174 -144 259 -350.5zM586 604q-174 0 -174 -194.5t157 -194.5q88 0 128 65.5t40 137t-8 133.5q-53 53 -143 53z" />
<glyph unicode="&#xf1;" d="M664 1116q154 0 237.5 -90t83.5 -252v-774h-315v739q0 133 -127 133q-74 0 -129 -59v-813h-314v774l-22 301l244 31l28 -123h10q111 133 304 133zM643 1200q-53 0 -129 33t-117 33q-74 0 -159 -62l-66 150q123 121 260 121q55 0 127 -32t123 -32t158 64l61 -152 q-139 -123 -258 -123z" />
<glyph unicode="&#xf2;" horiz-adv-x="1081" d="M737 1323l-96 -160l-459 199l115 211zM569 1116q113 0 197 -34.5t132 -89t77 -134.5q47 -131 47 -321q0 -293 -164 -445q-125 -117 -344 -117q-113 0 -197 35t-132 89.5t-79 133.5q-47 127 -47 322q0 180 72 317q125 244 438 244zM659.5 799.5q-28.5 72.5 -122 72.5 t-119 -69.5t-25.5 -253.5t29 -257t123 -73t118.5 68.5t24.5 254t-28.5 258z" />
<glyph unicode="&#xf3;" horiz-adv-x="1081" d="M791 1573l114 -211l-459 -199l-96 160zM512 -25q-111 0 -195 35t-132 89.5t-79 133.5q-47 127 -47 322q0 180 72 317q125 244 438 244q113 0 197 -34.5t132 -89t77 -134.5q47 -131 47 -321q0 -293 -164 -445q-125 -117 -346 -117zM545 219q94 0 118.5 68.5t24.5 254 t-28.5 258t-122 72.5t-119 -69.5t-25.5 -253.5t29 -257t123 -73z" />
<glyph unicode="&#xf4;" horiz-adv-x="1081" d="M614 1540l269 -264l-113 -117l-227 174l-228 -174l-112 117l270 264h141zM569 1116q113 0 197 -34.5t132 -89t77 -134.5q47 -131 47 -321q0 -293 -164 -445q-125 -117 -344 -117q-113 0 -197 35t-132 89.5t-79 133.5q-47 127 -47 322q0 180 72 317q125 244 438 244z M659.5 799.5q-28.5 72.5 -122 72.5t-119 -69.5t-25.5 -253.5t29 -257t123 -73t118.5 68.5t24.5 254t-28.5 258z" />
<glyph unicode="&#xf5;" horiz-adv-x="1081" d="M647 1200q-53 0 -130 33t-116 33q-78 0 -159 -62l-66 150q123 121 260 121q55 0 127 -32t123 -32t158 64l61 -152q-141 -123 -258 -123zM569 1116q113 0 197 -34.5t132 -89t77 -134.5q47 -131 47 -321q0 -293 -164 -445q-125 -117 -344 -117q-113 0 -197 35t-132 89.5 t-79 133.5q-47 127 -47 322q0 180 72 317q125 244 438 244zM659.5 799.5q-28.5 72.5 -122 72.5t-119 -69.5t-25.5 -253.5t29 -257t123 -73t118.5 68.5t24.5 254t-28.5 258z" />
<glyph unicode="&#xf6;" horiz-adv-x="1081" d="M338 1507q152 0 151 -170q0 -66 -39.5 -108.5t-130.5 -42.5q-154 0 -153 168q0 153 172 153zM764 1507q154 0 154 -170q0 -66 -40 -108.5t-130 -42.5q-154 0 -154 168q0 68 40 110.5t130 42.5zM569 1116q113 0 197 -34.5t132 -89t77 -134.5q47 -131 47 -321 q0 -293 -164 -445q-125 -117 -344 -117q-113 0 -197 35t-132 89.5t-79 133.5q-47 127 -47 322q0 180 72 317q125 244 438 244zM659.5 799.5q-28.5 72.5 -122 72.5t-119 -69.5t-25.5 -253.5t29 -257t123 -73t118.5 68.5t24.5 254t-28.5 258z" />
<glyph unicode="&#xf7;" horiz-adv-x="1171" d="M414 205q0 70 46 120t140 50q170 0 170 -187q0 -70 -46 -120t-142 -50q-168 1 -168 187zM414 1004q0 70 46 120t140 50q170 0 170 -187q0 -70 -46 -120t-142 -50q-168 1 -168 187zM1122 717l-37 -240h-1030l35 240h1032z" />
<glyph unicode="&#xf8;" horiz-adv-x="1093" d="M66 555q0 180 69 317q127 244 443 244q66 0 120 -12l60 160l116 -43l-59 -158q213 -121 213 -526q0 -293 -164 -445q-125 -117 -344 -117q-47 0 -121 13l-61 -166l-113 41l62 164q-221 114 -221 528zM414.5 803.5q-27.5 -70.5 -27.5 -234t29 -213.5l188 508 q-20 10 -59 10q-103 0 -130.5 -70.5zM551 217q102 0 129 69.5t27 231.5t-25 209l-188 -502q22 -8 57 -8z" />
<glyph unicode="&#xf9;" d="M410 -25q-147 0 -231.5 90.5t-84.5 247.5v764l314 29v-754q0 -133 122 -133q78 0 134 60v798l315 29v-791l22 -297l-245 -30l-27 125h-8q-121 -138 -311 -138zM723 1311l-96 -162l-459 199l113 213z" />
<glyph unicode="&#xfa;" d="M410 -25q-147 0 -231.5 90.5t-84.5 247.5v764l314 29v-754q0 -133 122 -133q78 0 134 60v798l315 29v-791l22 -297l-245 -30l-27 125h-8q-121 -138 -311 -138zM791 1573l112 -211l-459 -199l-96 160z" />
<glyph unicode="&#xfb;" d="M410 -25q-147 0 -231.5 90.5t-84.5 247.5v764l314 29v-754q0 -133 122 -133q78 0 134 60v798l315 29v-791l22 -297l-245 -30l-27 125h-8q-121 -138 -311 -138zM608 1540l271 -264l-113 -117l-227 174l-228 -174l-112 117l268 264h141z" />
<glyph unicode="&#xfc;" d="M410 -25q-147 0 -231.5 90.5t-84.5 247.5v764l314 29v-754q0 -133 122 -133q78 0 134 60v798l315 29v-791l22 -297l-245 -30l-27 125h-8q-121 -138 -311 -138zM332 1507q154 0 153 -170q0 -66 -41 -108.5t-129 -42.5q-154 0 -153 168q0 153 170 153zM758 1507 q156 0 155 -170q0 -66 -41 -108.5t-131 -42.5q-154 0 -153 168q0 68 41 110.5t129 42.5z" />
<glyph unicode="&#xfd;" horiz-adv-x="927" d="M637 1106l281 -31l-250 -887q-37 -135 -79 -224t-107.5 -176t-165 -139t-199.5 -59l-111 197q248 45 291 229q-53 176 -158.5 551t-144.5 508l309 31l152 -813h14zM719 1573l112 -211l-458 -199l-97 160z" />
<glyph unicode="&#xfe;" horiz-adv-x="1105" d="M414 252q55 -33 101 -33t69.5 10.5t50.5 40.5q59 66 59 269.5t-38 269t-116.5 65.5t-125.5 -55v-567zM623 1116q406 0 405 -551q0 -166 -42 -287.5t-112 -183.5q-131 -119 -279.5 -119t-217.5 50l-6 -9l43 -57v-383l-314 -33v1997l314 35v-449l-29 -75l8 -7q83 72 230 72 z" />
<glyph unicode="&#xff;" horiz-adv-x="927" d="M637 1106l281 -31l-250 -887q-37 -135 -79 -224t-107.5 -176t-165 -139t-199.5 -59l-111 197q248 45 291 229q-53 176 -158.5 551t-144.5 508l309 31l152 -813h14zM266 1511q154 0 154 -170q0 -66 -41 -109.5t-129 -43.5q-154 0 -154 170q0 153 170 153zM692 1511 q154 0 154 -170q0 -68 -40 -110.5t-130 -42.5q-154 0 -154 170q0 68 41 110.5t129 42.5z" />
<glyph unicode="&#x152;" horiz-adv-x="1718" d="M1122 1194v-330h463l-35 -250h-428v-360h559l-36 -254h-857q-98 -25 -165 -25q-541 0 -541 721q0 369 146.5 574t435.5 205q63 0 145 -25h862l-37 -256h-512zM633 1212q-119 0 -155 -111.5t-36 -391.5q0 -307 58 -394q53 -78 159 -77q76 0 127 30v910q-65 34 -153 34z " />
<glyph unicode="&#x153;" horiz-adv-x="1628" d="M557 1116q209 0 303 -131q106 131 309 131q205 0 301 -112q80 -92 99 -308q6 -86 6 -215l-145 -20h-422q0 -121 45 -181.5t162.5 -60.5t277.5 60l63 -193q-195 -111 -404.5 -111t-313.5 140q-119 -139 -324 -140q-113 0 -197 35t-132 89.5t-79 133.5q-47 127 -47 344.5 t125 378t373 160.5zM659.5 799.5q-28.5 72.5 -122 72.5t-119 -69.5t-25.5 -253.5t29 -257t123 -73t118.5 68.5t24.5 254t-28.5 258zM1240.5 827q-19.5 45 -92.5 45t-102.5 -52t-35.5 -156h250q0 118 -19.5 163z" />
<glyph unicode="&#x178;" horiz-adv-x="1085" d="M340 1880q152 0 152 -170q0 -68 -40 -111t-130 -43q-154 0 -154 168q0 68 41 112t131 44zM766 1880q154 0 154 -170q0 -68 -40 -111t-130 -43q-154 0 -154 168q0 68 40 112t130 44zM717 0h-334v502q-14 33 -399 917l319 41l242 -651h12l252 651l293 -43l-385 -915v-502z " />
<glyph unicode="&#x2c6;" horiz-adv-x="770" d="M455 1540l270 -264l-113 -117l-227 174l-227 -174l-113 117l268 264h142z" />
<glyph unicode="&#x2dc;" horiz-adv-x="819" d="M516 1200q-53 0 -129 33t-117 33q-74 0 -159 -62l-66 150q123 121 260 121q55 0 129 -32t123 -32t158 64l59 -152q-139 -123 -258 -123z" />
<glyph unicode="&#x2000;" horiz-adv-x="966" />
<glyph unicode="&#x2001;" horiz-adv-x="1933" />
<glyph unicode="&#x2002;" horiz-adv-x="966" />
<glyph unicode="&#x2003;" horiz-adv-x="1933" />
<glyph unicode="&#x2004;" horiz-adv-x="644" />
<glyph unicode="&#x2005;" horiz-adv-x="483" />
<glyph unicode="&#x2006;" horiz-adv-x="322" />
<glyph unicode="&#x2007;" horiz-adv-x="322" />
<glyph unicode="&#x2008;" horiz-adv-x="241" />
<glyph unicode="&#x2009;" horiz-adv-x="386" />
<glyph unicode="&#x200a;" horiz-adv-x="107" />
<glyph unicode="&#x2010;" horiz-adv-x="700" d="M623 635v-232h-545v232h545z" />
<glyph unicode="&#x2011;" horiz-adv-x="700" d="M623 635v-232h-545v232h545z" />
<glyph unicode="&#x2012;" horiz-adv-x="700" d="M623 635v-232h-545v232h545z" />
<glyph unicode="&#x2013;" horiz-adv-x="1124" d="M1030 645v-246h-936v246h936z" />
<glyph unicode="&#x2014;" horiz-adv-x="1622" d="M1528 649v-248h-1434v248h1434z" />
<glyph unicode="&#x2018;" horiz-adv-x="452" d="M297 1260q0 -27 65 -213l-219 -97q-2 8 -16 42t-17.5 43t-13.5 37t-12 40t-6 35q-10 41 -10 82q0 125 157 342l154 -115q-82 -135 -82 -196z" />
<glyph unicode="&#x2019;" horiz-adv-x="452" d="M385 1294q0 -127 -158 -342l-153 115q82 131 82 197q0 27 -66 213l221 96q4 -12 18.5 -49t18.5 -49.5t13.5 -42t13.5 -48.5q10 -43 10 -90z" />
<glyph unicode="&#x201a;" horiz-adv-x="462" d="M389 68q0 -125 -158 -340l-153 112q82 133 82 199q0 25 -66 211l221 96q12 -39 24.5 -67.5t21 -53t12.5 -39t8 -34.5q8 -45 8 -84z" />
<glyph unicode="&#x201c;" horiz-adv-x="806" d="M651 1266q0 -25 66 -211l-219 -97q-2 6 -14.5 36t-16.5 38q-33 90 -37 119q-8 57 -8 84q0 125 158 342l153 -113q-82 -137 -82 -198zM397 1466q-92 -152 -92 -207t53 -208l-223 -101q-59 166 -59 289t164 340z" />
<glyph unicode="&#x201d;" horiz-adv-x="806" d="M385 1294q0 -127 -158 -342l-153 115q82 131 82 197q0 27 -66 213l221 96q4 -12 18.5 -49t18.5 -49.5t13.5 -42t13.5 -48.5q10 -43 10 -90zM672 1579q59 -166 59 -289t-164 -340l-157 113q92 152 92 211t-51 207z" />
<glyph unicode="&#x201e;" horiz-adv-x="817" d="M389 68q0 -125 -158 -340l-153 112q82 133 82 199q0 25 -66 211l221 96q12 -39 24.5 -67.5t21 -53t12.5 -39t8 -34.5q8 -45 8 -84zM735 78q0 -135 -164 -352l-157 112q92 152 92 205t-51 211l221 100q59 -170 59 -276z" />
<glyph unicode="&#x2022;" horiz-adv-x="792" d="M639 770q43 -96 43 -215t-77 -196.5t-232 -77.5q-172 0 -223 112q-43 94 -43.5 214t75.5 198t241 78t216 -113z" />
<glyph unicode="&#x2026;" horiz-adv-x="1693" d="M295 342q174 0 174 -192q0 -74 -47 -124.5t-146 -50.5q-174 0 -174 191q0 74 47.5 125t145.5 51zM854 342q174 0 174 -192q0 -74 -47 -124.5t-145 -50.5q-174 0 -174 191q0 74 47 125t145 51zM1413 342q174 0 174 -192q0 -74 -47 -124.5t-145 -50.5q-174 0 -174 191 q0 74 47 125t145 51z" />
<glyph unicode="&#x202f;" horiz-adv-x="386" />
<glyph unicode="&#x2039;" horiz-adv-x="645" d="M563 913l-190 -401l190 -401l-213 -62l-256 463l254 463z" />
<glyph unicode="&#x203a;" horiz-adv-x="645" d="M297 975l252 -463l-252 -463l-215 62l190 401l-190 401z" />
<glyph unicode="&#x205f;" horiz-adv-x="483" />
<glyph unicode="&#x20ac;" horiz-adv-x="1126" d="M770 1067q-176 0 -229 -160h354l-68 -178h-313q-2 -27 -2 -82h285l-68 -172h-205q14 -70 55.5 -101.5t122.5 -31.5q139 0 261 64l57 -156q-66 -51 -165 -88t-206 -37q-342 0 -405 350h-178l38 160l127 8q0 29 5 86h-134l39 162l127 12q51 174 169 276.5t309.5 102.5 t338.5 -108l-84 -166q-127 59 -231 59z" />
<glyph unicode="&#x2122;" horiz-adv-x="1296" d="M371 1290v-547h-170v547h-176l10 144h500l-13 -144h-151zM1200 1434l27 -691h-170l-6 172l20 269h-20l-17 -78l-71 -279l-146 -10l-96 367h-21l23 -156l-6 -285h-158l25 691h202l91 -316l16 -92h8l14 92l78 316h207z" />
<glyph unicode="&#x25fc;" horiz-adv-x="1105" d="M0 1106h1106v-1106h-1106v1106z" />
<glyph unicode="&#xfb01;" horiz-adv-x="1118" d="M897 1311q-158 37 -234.5 37t-135 -37t-58.5 -146v-69h250l313 14v-1110h-313v872h-250v-872h-315v872h-166l32 209l134 11v77q0 238 145 334q127 84 309.5 84t335.5 -63z" />
<glyph unicode="&#xfb02;" horiz-adv-x="1196" d="M1094 377q0 -98 13 -144.5t62 -111.5l-223 -166q-96 102 -132 182t-36 234v966q-55 10 -123.5 10.5t-127 -36.5t-58.5 -146v-69h225l-35 -224h-190v-872h-315v872h-166l32 209l134 11v77q0 119 38.5 204t106.5 130q127 82 282.5 82t340.5 -57l172 18v-1169z" />
</font>
</defs>
</svg>
